<svg width="78" height="64" viewBox="0 0 78 64" fill="none" xmlns="http://www.w3.org/2000/svg">
<circle cx="32.0718" cy="29.5229" r="28.85" fill="#FFF06C" stroke="black" stroke-width="0.3"/>
<rect x="0.15" y="37.6538" width="25.6734" height="25.6734" fill="#7CB1FF" stroke="black" stroke-width="0.3"/>
<path d="M13.4068 24.56V24.2C13.6548 24.2 13.8268 24.136 13.9228 24.008C14.0188 23.888 14.0748 23.716 14.0908 23.492C14.1068 23.276 14.1148 23.024 14.1148 22.736L14.1388 16.94C14.1388 16.812 14.1388 16.684 14.1388 16.556C14.1468 16.428 14.1628 16.296 14.1868 16.16C14.0428 16.168 13.8988 16.176 13.7548 16.184C13.6188 16.192 13.4788 16.2 13.3348 16.208V15.704C13.6868 15.704 13.9508 15.688 14.1268 15.656C14.3108 15.624 14.4428 15.584 14.5228 15.536C14.6108 15.488 14.6828 15.436 14.7388 15.38H15.0988C15.1068 15.46 15.1148 15.556 15.1228 15.668C15.1308 15.772 15.1388 15.892 15.1468 16.028C15.3868 15.812 15.6708 15.64 15.9988 15.512C16.3348 15.376 16.6708 15.308 17.0068 15.308C17.4708 15.308 17.9028 15.428 18.3028 15.668C18.7028 15.908 19.0268 16.252 19.2748 16.7C19.5228 17.14 19.6468 17.668 19.6468 18.284C19.6468 18.964 19.5028 19.56 19.2148 20.072C18.9348 20.584 18.5628 20.984 18.0988 21.272C17.6348 21.552 17.1308 21.692 16.5868 21.692C16.0348 21.692 15.5548 21.56 15.1468 21.296V23.288C15.1468 23.448 15.1428 23.588 15.1348 23.708C15.1348 23.836 15.1228 23.968 15.0988 24.104C15.2268 24.096 15.3508 24.088 15.4708 24.08C15.5988 24.08 15.7268 24.076 15.8548 24.068V24.56H13.4068ZM16.5628 21.212C16.9468 21.212 17.2748 21.096 17.5468 20.864C17.8268 20.624 18.0388 20.3 18.1828 19.892C18.3348 19.476 18.4108 19.004 18.4108 18.476C18.4108 18.044 18.3468 17.632 18.2188 17.24C18.0988 16.84 17.9028 16.516 17.6308 16.268C17.3668 16.02 17.0148 15.896 16.5748 15.896C16.3028 15.896 16.0388 15.964 15.7828 16.1C15.5348 16.228 15.3268 16.384 15.1588 16.568C15.1588 16.6 15.1588 16.648 15.1588 16.712C15.1668 16.768 15.1708 16.872 15.1708 17.024C15.1708 17.168 15.1708 17.388 15.1708 17.684C15.1708 17.972 15.1668 18.364 15.1588 18.86C15.1588 19.356 15.1588 19.984 15.1588 20.744C15.5668 21.056 16.0348 21.212 16.5628 21.212ZM21.095 21.14C21.343 21.14 21.515 21.08 21.611 20.96C21.707 20.832 21.763 20.66 21.779 20.444C21.795 20.22 21.803 19.964 21.803 19.676V16.94C21.803 16.812 21.803 16.684 21.803 16.556C21.811 16.428 21.827 16.296 21.851 16.16C21.707 16.168 21.563 16.176 21.419 16.184C21.283 16.184 21.143 16.188 20.999 16.196V15.704H21.371C21.715 15.704 21.951 15.672 22.079 15.608C22.215 15.536 22.327 15.46 22.415 15.38H22.763C22.779 15.508 22.791 15.668 22.799 15.86C22.807 16.044 22.815 16.28 22.823 16.568C22.943 16.368 23.107 16.172 23.315 15.98C23.523 15.788 23.755 15.628 24.011 15.5C24.275 15.372 24.551 15.308 24.839 15.308C25.063 15.308 25.259 15.368 25.427 15.488C25.595 15.608 25.679 15.8 25.679 16.064C25.679 16.168 25.631 16.292 25.535 16.436C25.447 16.58 25.295 16.648 25.079 16.64C24.903 16.632 24.763 16.564 24.659 16.436C24.555 16.3 24.515 16.144 24.539 15.968C24.235 15.952 23.927 16.068 23.615 16.316C23.303 16.564 23.043 16.884 22.835 17.276L22.847 20.228C22.847 20.388 22.843 20.532 22.835 20.66C22.835 20.78 22.823 20.908 22.799 21.044C22.927 21.036 23.051 21.032 23.171 21.032C23.299 21.024 23.427 21.016 23.555 21.008V21.5H21.095V21.14ZM29.5283 21.692C28.9763 21.692 28.4763 21.564 28.0283 21.308C27.5883 21.044 27.2403 20.676 26.9843 20.204C26.7283 19.724 26.6003 19.16 26.6003 18.512C26.6003 17.952 26.7243 17.428 26.9723 16.94C27.2283 16.452 27.5843 16.06 28.0403 15.764C28.4963 15.46 29.0243 15.308 29.6243 15.308C30.0723 15.308 30.4803 15.404 30.8483 15.596C31.2163 15.788 31.5083 16.08 31.7243 16.472C31.9483 16.864 32.0603 17.36 32.0603 17.96L27.8363 18.032C27.8283 18.952 27.9803 19.692 28.2923 20.252C28.6043 20.804 29.1123 21.08 29.8163 21.08C30.0643 21.08 30.3163 21.036 30.5723 20.948C30.8363 20.86 31.0803 20.74 31.3043 20.588C31.5283 20.436 31.7083 20.268 31.8443 20.084L32.1323 20.324C31.9163 20.66 31.6563 20.928 31.3523 21.128C31.0483 21.328 30.7363 21.472 30.4163 21.56C30.0963 21.648 29.8003 21.692 29.5283 21.692ZM27.8723 17.528H30.9323C30.9323 17.24 30.8883 16.964 30.8003 16.7C30.7203 16.428 30.5843 16.208 30.3923 16.04C30.2003 15.864 29.9483 15.776 29.6363 15.776C29.1723 15.776 28.7843 15.916 28.4723 16.196C28.1683 16.468 27.9683 16.912 27.8723 17.528ZM36.0083 21.692C35.6083 21.692 35.2523 21.636 34.9403 21.524C34.6283 21.42 34.3723 21.3 34.1723 21.164L34.2203 21.584H33.7163L33.6443 19.52H34.0163C34.0323 19.848 34.1243 20.144 34.2923 20.408C34.4603 20.664 34.6763 20.864 34.9403 21.008C35.2043 21.152 35.4883 21.224 35.7923 21.224C36.0003 21.224 36.2043 21.192 36.4043 21.128C36.6043 21.056 36.7723 20.952 36.9083 20.816C37.0443 20.672 37.1123 20.492 37.1123 20.276C37.1123 20.052 37.0443 19.868 36.9083 19.724C36.7803 19.572 36.6083 19.44 36.3923 19.328C36.1763 19.216 35.9443 19.112 35.6963 19.016C35.3763 18.888 35.0563 18.752 34.7363 18.608C34.4243 18.456 34.1643 18.26 33.9563 18.02C33.7483 17.772 33.6443 17.448 33.6443 17.048C33.6443 16.88 33.6763 16.696 33.7403 16.496C33.8043 16.296 33.9123 16.108 34.0643 15.932C34.2163 15.748 34.4243 15.6 34.6883 15.488C34.9523 15.368 35.2883 15.308 35.6963 15.308C35.9123 15.308 36.1523 15.344 36.4163 15.416C36.6803 15.488 36.9363 15.624 37.1843 15.824L37.1603 15.368H37.6643V17.468H37.2803C37.2643 17.188 37.2003 16.92 37.0883 16.664C36.9763 16.4 36.8123 16.184 36.5963 16.016C36.3803 15.84 36.1003 15.752 35.7563 15.752C35.3883 15.752 35.1003 15.844 34.8923 16.028C34.6843 16.212 34.5803 16.424 34.5803 16.664C34.5803 16.912 34.6563 17.12 34.8083 17.288C34.9683 17.448 35.1723 17.588 35.4203 17.708C35.6683 17.828 35.9323 17.944 36.2123 18.056C36.5163 18.184 36.8123 18.324 37.1003 18.476C37.3883 18.628 37.6243 18.82 37.8083 19.052C37.9923 19.276 38.0843 19.568 38.0843 19.928C38.0843 20.328 37.9803 20.66 37.7723 20.924C37.5723 21.188 37.3123 21.38 36.9923 21.5C36.6803 21.628 36.3523 21.692 36.0083 21.692Z" fill="black"/>
<path d="M39.7684 37.5V36.84C40.0984 36.83 40.3334 36.765 40.4734 36.645C40.6234 36.515 40.7184 36.325 40.7584 36.075C40.7984 35.825 40.8184 35.51 40.8184 35.13V29.01C40.8184 28.47 40.8334 28.055 40.8634 27.765C40.6934 27.775 40.5084 27.785 40.3084 27.795C40.1084 27.805 39.9284 27.815 39.7684 27.825V27C40.3684 26.99 40.9684 26.985 41.5684 26.985C42.1684 26.975 42.7834 26.97 43.4134 26.97C44.5934 26.97 45.5184 27.185 46.1884 27.615C46.8584 28.035 47.1784 28.695 47.1484 29.595C47.1384 30.065 46.9384 30.52 46.5484 30.96C46.1584 31.39 45.5684 31.685 44.7784 31.845V31.875C45.8484 31.925 46.6484 32.205 47.1784 32.715C47.7084 33.215 47.9734 33.825 47.9734 34.545C47.9734 35.175 47.8134 35.71 47.4934 36.15C47.1834 36.59 46.7584 36.925 46.2184 37.155C45.6884 37.385 45.0784 37.5 44.3884 37.5H39.7684ZM42.4084 31.71L43.3984 31.68C43.9184 31.67 44.3284 31.56 44.6284 31.35C44.9384 31.14 45.1584 30.87 45.2884 30.54C45.4184 30.21 45.4784 29.865 45.4684 29.505C45.4684 29.005 45.3634 28.625 45.1534 28.365C44.9434 28.105 44.6834 27.925 44.3734 27.825C44.0634 27.725 43.7584 27.675 43.4584 27.675C43.0484 27.685 42.7684 27.78 42.6184 27.96C42.4784 28.14 42.4084 28.51 42.4084 29.07V31.71ZM42.3634 36.75C42.6034 36.76 42.8834 36.765 43.2034 36.765C43.5334 36.765 43.7684 36.765 43.9084 36.765C44.6284 36.755 45.1934 36.56 45.6034 36.18C46.0134 35.8 46.2184 35.27 46.2184 34.59C46.2184 34.03 46.1034 33.595 45.8734 33.285C45.6534 32.965 45.3634 32.74 45.0034 32.61C44.6434 32.48 44.2584 32.415 43.8484 32.415C43.3084 32.415 42.8284 32.425 42.4084 32.445V35.52C42.4084 35.79 42.4034 36.03 42.3934 36.24C42.3934 36.45 42.3834 36.62 42.3634 36.75ZM54.8584 33.705C54.8584 33.275 54.7934 32.965 54.6634 32.775C54.5434 32.585 54.3584 32.47 54.1084 32.43C53.8584 32.39 53.5484 32.375 53.1784 32.385L52.3084 32.415V35.535C52.3084 35.805 52.3034 36.045 52.2934 36.255C52.2934 36.455 52.2834 36.62 52.2634 36.75L54.8434 36.72C55.2334 36.72 55.5834 36.65 55.8934 36.51C56.2034 36.37 56.4484 36.135 56.6284 35.805C56.8084 35.475 56.8984 35.025 56.8984 34.455H57.5584L57.4684 37.5H49.6684V36.84C49.9984 36.83 50.2334 36.765 50.3734 36.645C50.5234 36.515 50.6184 36.33 50.6584 36.09C50.6984 35.85 50.7184 35.545 50.7184 35.175V28.935C50.7184 28.475 50.7334 28.085 50.7634 27.765C50.5934 27.775 50.4084 27.785 50.2084 27.795C50.0084 27.805 49.8284 27.815 49.6684 27.825V27H56.9884L57.0634 29.715H56.4034C56.4034 29.145 56.3084 28.71 56.1184 28.41C55.9384 28.11 55.6984 27.91 55.3984 27.81C55.1084 27.71 54.7934 27.665 54.4534 27.675L53.4034 27.705C53.0834 27.705 52.8434 27.76 52.6834 27.87C52.5334 27.97 52.4334 28.14 52.3834 28.38C52.3334 28.61 52.3084 28.925 52.3084 29.325V31.68H54.7834L54.6934 30.39H55.5184V33.705H54.8584ZM65.4941 30.24C65.4441 29.73 65.3141 29.27 65.1041 28.86C64.8941 28.45 64.5991 28.125 64.2191 27.885C63.8491 27.635 63.3941 27.515 62.8541 27.525C62.2941 27.525 61.8491 27.68 61.5191 27.99C61.1891 28.3 61.0241 28.675 61.0241 29.115C61.0241 29.505 61.1341 29.835 61.3541 30.105C61.5741 30.365 61.8691 30.6 62.2391 30.81C62.6191 31.02 63.0441 31.23 63.5141 31.44C63.8941 31.6 64.2741 31.78 64.6541 31.98C65.0441 32.17 65.3991 32.395 65.7191 32.655C66.0391 32.915 66.2941 33.225 66.4841 33.585C66.6841 33.935 66.7841 34.35 66.7841 34.83C66.7841 35.4 66.6391 35.905 66.3491 36.345C66.0591 36.775 65.6441 37.115 65.1041 37.365C64.5641 37.615 63.9191 37.74 63.1691 37.74C62.7391 37.74 62.2841 37.675 61.8041 37.545C61.3241 37.425 60.8941 37.24 60.5141 36.99L60.5891 37.62H59.6741L59.6141 34.32H60.3341C60.4141 35.19 60.7241 35.85 61.2641 36.3C61.8041 36.74 62.4591 36.96 63.2291 36.96C63.7891 36.96 64.2691 36.81 64.6691 36.51C65.0691 36.2 65.2691 35.775 65.2691 35.235C65.2691 34.825 65.1491 34.48 64.9091 34.2C64.6691 33.92 64.3591 33.68 63.9791 33.48C63.5991 33.28 63.2041 33.09 62.7941 32.91C62.2441 32.67 61.7191 32.41 61.2191 32.13C60.7291 31.84 60.3291 31.485 60.0191 31.065C59.7091 30.645 59.5541 30.115 59.5541 29.475C59.5541 29.205 59.6041 28.915 59.7041 28.605C59.8041 28.285 59.9741 27.985 60.2141 27.705C60.4541 27.425 60.7791 27.2 61.1891 27.03C61.6091 26.85 62.1341 26.76 62.7641 26.76C63.1441 26.76 63.5691 26.815 64.0391 26.925C64.5191 27.035 64.9541 27.23 65.3441 27.51L65.2841 26.88H66.1841V30.24H65.4941ZM76.5513 30.24C76.5413 29.38 76.3963 28.74 76.1163 28.32C75.8363 27.9 75.3413 27.69 74.6313 27.69H73.5513L73.5363 35.49C73.5363 35.76 73.5313 36.005 73.5213 36.225C73.5113 36.435 73.5013 36.605 73.4913 36.735C73.6813 36.725 73.8863 36.715 74.1063 36.705C74.3363 36.685 74.5413 36.675 74.7213 36.675V37.5H70.9113V36.84C71.2313 36.83 71.4613 36.765 71.6013 36.645C71.7513 36.515 71.8463 36.33 71.8863 36.09C71.9263 35.84 71.9463 35.535 71.9463 35.175V27.705L70.6863 27.72C70.0763 27.72 69.6313 27.925 69.3513 28.335C69.0713 28.745 68.9313 29.38 68.9313 30.24H68.2263L68.3163 27H77.1663L77.2563 30.24H76.5513Z" fill="black"/>
<path d="M16.4054 46.6824C15.8534 46.6824 15.3534 46.5544 14.9054 46.2984C14.4654 46.0344 14.1174 45.6664 13.8614 45.1944C13.6054 44.7144 13.4774 44.1504 13.4774 43.5024C13.4774 42.9424 13.6014 42.4184 13.8494 41.9304C14.1054 41.4424 14.4614 41.0504 14.9174 40.7544C15.3734 40.4504 15.9014 40.2984 16.5014 40.2984C16.9494 40.2984 17.3574 40.3944 17.7254 40.5864C18.0934 40.7784 18.3854 41.0704 18.6014 41.4624C18.8254 41.8544 18.9374 42.3504 18.9374 42.9504L14.7134 43.0224C14.7054 43.9424 14.8574 44.6824 15.1694 45.2424C15.4814 45.7944 15.9894 46.0704 16.6934 46.0704C16.9414 46.0704 17.1934 46.0264 17.4494 45.9384C17.7134 45.8504 17.9574 45.7304 18.1814 45.5784C18.4054 45.4264 18.5854 45.2584 18.7214 45.0744L19.0094 45.3144C18.7934 45.6504 18.5334 45.9184 18.2294 46.1184C17.9254 46.3184 17.6134 46.4624 17.2934 46.5504C16.9734 46.6384 16.6774 46.6824 16.4054 46.6824ZM14.7494 42.5184H17.8094C17.8094 42.2304 17.7654 41.9544 17.6774 41.6904C17.5974 41.4184 17.4614 41.1984 17.2694 41.0304C17.0774 40.8544 16.8254 40.7664 16.5134 40.7664C16.0494 40.7664 15.6614 40.9064 15.3494 41.1864C15.0454 41.4584 14.8454 41.9024 14.7494 42.5184ZM20.4253 46.4904V46.1304C20.6733 46.1304 20.8453 46.0704 20.9413 45.9504C21.0373 45.8224 21.0933 45.6504 21.1093 45.4344C21.1253 45.2104 21.1333 44.9544 21.1333 44.6664L21.1453 41.9304C21.1453 41.8024 21.1453 41.6744 21.1453 41.5464C21.1533 41.4184 21.1693 41.2864 21.1933 41.1504C21.0493 41.1584 20.9053 41.1664 20.7613 41.1744C20.6253 41.1824 20.4853 41.1904 20.3413 41.1984V40.6944C20.6933 40.6944 20.9573 40.6784 21.1333 40.6464C21.3173 40.6144 21.4533 40.5744 21.5413 40.5264C21.6293 40.4784 21.7013 40.4264 21.7573 40.3704H22.1053C22.1213 40.4584 22.1293 40.5624 22.1293 40.6824C22.1373 40.7944 22.1453 40.9344 22.1533 41.1024C22.4093 40.8704 22.7133 40.6784 23.0653 40.5264C23.4173 40.3744 23.7653 40.2984 24.1093 40.2984C24.8053 40.2984 25.3133 40.5184 25.6333 40.9584C25.9533 41.3904 26.1133 42.0664 26.1133 42.9864V45.2184C26.1133 45.3784 26.1093 45.5224 26.1013 45.6504C26.1013 45.7704 26.0893 45.8984 26.0653 46.0344C26.1933 46.0264 26.3173 46.0224 26.4373 46.0224C26.5653 46.0144 26.6933 46.0064 26.8213 45.9984V46.4904H24.3733V46.1304C24.6213 46.1304 24.7933 46.0704 24.8893 45.9504C24.9853 45.8224 25.0413 45.6504 25.0573 45.4344C25.0733 45.2104 25.0813 44.9544 25.0813 44.6664V42.9864C25.0733 42.2984 24.9573 41.7784 24.7333 41.4264C24.5173 41.0744 24.1733 40.9024 23.7013 40.9104C23.4133 40.9184 23.1293 40.9944 22.8493 41.1384C22.5773 41.2824 22.3493 41.4664 22.1653 41.6904C22.1733 41.7544 22.1773 41.8264 22.1773 41.9064C22.1773 41.9864 22.1773 42.0704 22.1773 42.1584L22.1653 45.2184C22.1653 45.3784 22.1613 45.5224 22.1533 45.6504C22.1533 45.7704 22.1413 45.8984 22.1173 46.0344C22.2453 46.0264 22.3693 46.0224 22.4893 46.0224C22.6173 46.0144 22.7453 46.0064 22.8733 45.9984V46.4904H20.4253ZM30.2849 46.6824C30.1009 46.6824 29.9129 46.6544 29.7209 46.5984C29.5289 46.5504 29.3489 46.4504 29.1809 46.2984C29.0209 46.1464 28.8929 45.9264 28.7969 45.6384C28.7009 45.3424 28.6529 44.9544 28.6529 44.4744L28.6769 40.9944L27.7529 41.0064V40.4904C27.9609 40.4824 28.1729 40.4064 28.3889 40.2624C28.6049 40.1104 28.7969 39.9064 28.9649 39.6504C29.1409 39.3944 29.2609 39.1144 29.3249 38.8104H29.7329V40.4904H31.7489V40.9584L29.7329 40.9824L29.7089 44.3184C29.7089 44.8624 29.7769 45.2784 29.9129 45.5664C30.0569 45.8544 30.2929 45.9984 30.6209 45.9984C30.8449 45.9984 31.0529 45.9344 31.2449 45.8064C31.4449 45.6784 31.6209 45.5024 31.7729 45.2784L32.0969 45.5424C31.8649 45.8944 31.6329 46.1504 31.4009 46.3104C31.1769 46.4704 30.9689 46.5704 30.7769 46.6104C30.5849 46.6584 30.4209 46.6824 30.2849 46.6824ZM35.5495 46.6824C35.1495 46.6824 34.7935 46.6264 34.4815 46.5144C34.1695 46.4104 33.9135 46.2904 33.7135 46.1544L33.7615 46.5744H33.2575L33.1855 44.5104H33.5575C33.5735 44.8384 33.6655 45.1344 33.8335 45.3984C34.0015 45.6544 34.2175 45.8544 34.4815 45.9984C34.7455 46.1424 35.0295 46.2144 35.3335 46.2144C35.5415 46.2144 35.7455 46.1824 35.9455 46.1184C36.1455 46.0464 36.3135 45.9424 36.4495 45.8064C36.5855 45.6624 36.6535 45.4824 36.6535 45.2664C36.6535 45.0424 36.5855 44.8584 36.4495 44.7144C36.3215 44.5624 36.1495 44.4304 35.9335 44.3184C35.7175 44.2064 35.4855 44.1024 35.2375 44.0064C34.9175 43.8784 34.5975 43.7424 34.2775 43.5984C33.9655 43.4464 33.7055 43.2504 33.4975 43.0104C33.2895 42.7624 33.1855 42.4384 33.1855 42.0384C33.1855 41.8704 33.2175 41.6864 33.2815 41.4864C33.3455 41.2864 33.4535 41.0984 33.6055 40.9224C33.7575 40.7384 33.9655 40.5904 34.2295 40.4784C34.4935 40.3584 34.8295 40.2984 35.2375 40.2984C35.4535 40.2984 35.6935 40.3344 35.9575 40.4064C36.2215 40.4784 36.4775 40.6144 36.7255 40.8144L36.7015 40.3584H37.2055V42.4584H36.8215C36.8055 42.1784 36.7415 41.9104 36.6295 41.6544C36.5175 41.3904 36.3535 41.1744 36.1375 41.0064C35.9215 40.8304 35.6415 40.7424 35.2975 40.7424C34.9295 40.7424 34.6415 40.8344 34.4335 41.0184C34.2255 41.2024 34.1215 41.4144 34.1215 41.6544C34.1215 41.9024 34.1975 42.1104 34.3495 42.2784C34.5095 42.4384 34.7135 42.5784 34.9615 42.6984C35.2095 42.8184 35.4735 42.9344 35.7535 43.0464C36.0575 43.1744 36.3535 43.3144 36.6415 43.4664C36.9295 43.6184 37.1655 43.8104 37.3495 44.0424C37.5335 44.2664 37.6255 44.5584 37.6255 44.9184C37.6255 45.3184 37.5215 45.6504 37.3135 45.9144C37.1135 46.1784 36.8535 46.3704 36.5335 46.4904C36.2215 46.6184 35.8935 46.6824 35.5495 46.6824Z" fill="black"/>
<path d="M35.875 21.375C37.9547 22.109 47.1557 21.1714 51.8533 19.4098C56.5508 17.6482 56.0425 14.2073 55.125 12.25" stroke="black" stroke-width="0.4"/>
<path d="M4.22222 22.4444C17.8012 32.1699 49.2022 47.9965 59.1111 39.5556" stroke="black" stroke-width="0.4"/>
<path d="M0.888885 37.5556C3.33333 40.8148 10.2667 47.1556 15.7778 46.4444" stroke="black" stroke-width="0.4"/>
</svg>
